# Blender 3.6.8
# www.blender.org
mtllib funko box.mtl
o Cube
v 0.500000 1.039839 -0.500000
v 0.500000 -0.411808 -0.500000
v 0.500000 1.039839 0.500000
v 0.500000 -0.411808 0.500000
v -0.500000 1.039839 -0.500000
v -0.500000 -0.411808 -0.500000
v -0.500000 1.039839 0.500000
v -0.500000 -0.411808 0.500000
vn -0.0000 1.0000 -0.0000
vn -0.0000 -0.0000 1.0000
vn -1.0000 -0.0000 -0.0000
vn -0.0000 -1.0000 -0.0000
vn 1.0000 -0.0000 -0.0000
vn -0.0000 -0.0000 -1.0000
vt 0.488439 0.907182
vt 0.241289 0.907182
vt 0.241289 0.710924
vt 0.488440 0.710924
vt 0.499302 0.320465
vt 0.499302 0.706521
vt 0.227203 0.706521
vt 0.228612 0.317340
vt 0.223692 0.319060
vt 0.223692 0.707423
vt 0.036492 0.707423
vt 0.036492 0.319060
vt 0.242193 0.110657
vt 0.489831 0.110657
vt 0.489831 0.318989
vt 0.242193 0.318989
vt 0.725570 0.320487
vt 0.725570 0.697018
vt 0.502813 0.697018
vt 0.502813 0.320487
vt 0.934411 0.319895
vt 0.934411 0.696593
vt 0.729785 0.696593
vt 0.729785 0.319895
s 0
usemtl Material
f 1/1/1 5/2/1 7/3/1 3/4/1
f 4/5/2 3/6/2 7/7/2 8/8/2
f 8/9/3 7/10/3 5/11/3 6/12/3
f 6/13/4 2/14/4 4/15/4 8/16/4
f 2/17/5 1/18/5 3/19/5 4/20/5
f 6/21/6 5/22/6 1/23/6 2/24/6
