# Blender 3.6.8
# www.blender.org
mtllib card.mtl
o Cube
v -0.500000 0.835104 -0.012009
v -0.500000 -0.585537 -0.012009
v 0.500000 0.835104 -0.012009
v 0.500000 -0.585537 -0.012009
v -0.500000 0.835104 0.012009
v -0.500000 -0.585537 0.012009
v 0.500000 0.835104 0.012009
v 0.500000 -0.585537 0.012009
vn -0.0000 1.0000 -0.0000
vn 1.0000 -0.0000 -0.0000
vn -0.0000 -0.0000 1.0000
vn -0.0000 -1.0000 -0.0000
vn -0.0000 -0.0000 -1.0000
vn -1.0000 -0.0000 -0.0000
vt 0.500000 0.500000
vt 0.749957 0.500000
vt 0.749957 0.749957
vt 0.500000 0.749957
vt 0.250043 0.749957
vt 0.500000 0.999913
vt 0.250043 0.999913
vt 1.000000 0.000043
vt 1.000043 1.000043
vt 0.000043 1.000087
vt -0.000000 0.000087
vt 0.000087 0.500000
vt 0.250043 0.500000
vt 0.000087 0.749957
vt 1.000000 -0.000043
vt 1.000043 0.999957
vt 0.000043 1.000000
vt -0.000000 0.000000
vt 0.250043 0.250043
vt 0.500000 0.250043
s 0
usemtl Card_Back
f 2/15/5 1/16/5 3/17/5 4/18/5
usemtl Card_Face
f 8/8/3 7/9/3 5/10/3 6/11/3
usemtl Edges
f 1/1/1 5/2/1 7/3/1 3/4/1
f 4/5/2 3/4/2 7/6/2 8/7/2
f 6/12/4 2/13/4 4/5/4 8/14/4
f 6/19/6 5/20/6 1/1/6 2/13/6
