# Blender 3.6.8
# www.blender.org
mtllib quarter note.mtl
o Plane.002
v 0.029432 0.900343 0.119346
v -0.000000 0.872791 0.108597
v 0.008620 0.892273 0.116198
v -0.000000 0.776971 0.297146
v 0.029432 0.802227 0.312413
v 0.008620 0.794830 0.307941
v 0.029432 0.473064 0.641575
v -0.000000 0.459775 0.614952
v 0.008620 0.469172 0.633777
v -0.000000 0.641913 0.487455
v 0.029432 0.662966 0.508644
v 0.008620 0.656800 0.502438
v -0.000000 0.323607 0.659354
v 0.029432 0.327473 0.689051
v 0.008620 0.326341 0.680353
v -0.000000 0.112255 0.647447
v 0.029432 0.102756 0.676391
v 0.008620 0.105538 0.667913
v -0.000000 -0.020547 0.560838
v 0.029432 -0.042835 0.581440
v 0.008620 -0.036307 0.575406
v -0.000000 -0.089723 0.434015
v 0.029432 -0.118795 0.442179
v 0.008620 -0.110280 0.439788
v -0.000000 -0.101766 0.184113
v 0.029432 -0.131456 0.179482
v 0.008620 -0.122760 0.180838
v -0.000000 0.011645 -0.119338
v 0.029432 -0.014350 -0.133856
v 0.008620 -0.006736 -0.129604
v -0.000000 0.160962 -0.311318
v 0.029432 0.140737 -0.333253
v 0.008620 0.146661 -0.326828
v -0.000000 0.368892 -0.447541
v 0.029432 0.356926 -0.474888
v 0.008620 0.360430 -0.466878
v 0.029432 3.814013 -0.474732
v 0.029432 3.784581 -0.504113
v -0.000000 3.784581 -0.474681
v 0.029432 3.805392 -0.495529
v 0.012439 3.801573 -0.491703
v 0.008620 3.784581 -0.495493
v 0.008620 3.805392 -0.474717
v 0.029432 3.814013 -0.431213
v -0.000000 3.784581 -0.431213
v 0.029432 3.784581 -0.401781
v 0.008620 3.805392 -0.431213
v 0.012439 3.801573 -0.414221
v 0.008620 3.784581 -0.410402
v 0.029432 3.805392 -0.410402
v 0.029432 0.890094 -0.401781
v -0.000000 0.814117 -0.431213
v 0.029432 0.873281 -0.375192
v 0.008620 0.852105 -0.410402
v 0.012439 0.858854 -0.402925
v 0.008620 0.849206 -0.405816
v 0.029432 0.872979 -0.393993
v -0.000000 0.893133 -0.264713
v 0.029432 0.922205 -0.272103
v 0.008620 0.913690 -0.269939
v -0.000000 0.901551 -0.111098
v 0.029432 0.930996 -0.111654
v 0.008620 0.922372 -0.111491
v -0.000000 0.899435 0.013725
v 0.029432 0.928798 0.018024
v 0.008620 0.920198 0.016765
v -0.000000 0.457258 -0.469633
v 0.029432 0.453635 -0.499065
v 0.008620 0.454696 -0.490445
v -0.000000 0.708469 -0.469633
v 0.029432 0.708469 -0.499065
v 0.008620 0.708469 -0.490444
v -0.000000 0.861040 -0.469633
v 0.029432 0.861203 -0.499065
v 0.008620 0.861156 -0.490444
v 0.229706 0.459775 0.614952
v 0.200274 0.473064 0.641575
v 0.221085 0.469172 0.633777
v 0.200274 0.327473 0.689051
v 0.229706 0.323607 0.659354
v 0.221085 0.326341 0.680353
v 0.229706 0.872791 0.108597
v 0.200274 0.900343 0.119346
v 0.221085 0.892273 0.116198
v 0.200274 0.802227 0.312413
v 0.229706 0.776971 0.297146
v 0.221085 0.794830 0.307941
v 0.200274 0.662966 0.508644
v 0.229706 0.641913 0.487455
v 0.221085 0.656800 0.502438
v 0.200274 0.102756 0.676391
v 0.229706 0.112255 0.647447
v 0.221085 0.105538 0.667913
v 0.200274 -0.042835 0.581440
v 0.229706 -0.020547 0.560838
v 0.221085 -0.036307 0.575406
v 0.200274 -0.118795 0.442179
v 0.229706 -0.089723 0.434015
v 0.221085 -0.110280 0.439788
v 0.200274 -0.131456 0.179482
v 0.229706 -0.101766 0.184113
v 0.221085 -0.122760 0.180838
v 0.200274 -0.014350 -0.133856
v 0.229706 0.011645 -0.119338
v 0.221085 -0.006736 -0.129604
v 0.200274 0.140737 -0.333253
v 0.229706 0.160962 -0.311318
v 0.221085 0.146661 -0.326828
v 0.200274 0.356926 -0.474888
v 0.229706 0.368892 -0.447541
v 0.221085 0.360430 -0.466878
v 0.200274 0.453635 -0.499065
v 0.229706 0.457258 -0.469633
v 0.221085 0.454696 -0.490445
v 0.200274 3.814013 -0.474732
v 0.229706 3.784581 -0.474681
v 0.200274 3.784581 -0.504113
v 0.221085 3.805392 -0.474717
v 0.217266 3.801573 -0.491703
v 0.221085 3.784581 -0.495493
v 0.200274 3.805392 -0.495529
v 0.200274 3.814013 -0.431213
v 0.200274 3.784581 -0.401781
v 0.229706 3.784581 -0.431213
v 0.200274 3.805392 -0.410402
v 0.217266 3.801573 -0.414221
v 0.221085 3.784581 -0.410402
v 0.221085 3.805392 -0.431213
v 0.200274 0.890094 -0.401781
v 0.200274 0.873281 -0.375192
v 0.229706 0.814117 -0.431213
v 0.200274 0.872979 -0.393993
v 0.217267 0.858854 -0.402925
v 0.221085 0.849206 -0.405816
v 0.221085 0.852106 -0.410402
v 0.200274 0.922205 -0.272103
v 0.229706 0.893133 -0.264713
v 0.221085 0.913690 -0.269939
v 0.200274 0.930996 -0.111654
v 0.229706 0.901551 -0.111098
v 0.221085 0.922372 -0.111491
v 0.200274 0.928798 0.018024
v 0.229706 0.899435 0.013725
v 0.221085 0.920198 0.016765
v 0.200274 0.708469 -0.499065
v 0.229706 0.708469 -0.469633
v 0.221085 0.708469 -0.490444
v 0.200274 0.861203 -0.499065
v 0.229706 0.861040 -0.469633
v 0.221085 0.861156 -0.490444
vn -0.1935 0.9708 0.1421
vn -0.1936 0.9140 0.3566
vn 0.1936 0.9140 0.3566
vn 0.1935 0.9708 0.1421
vn -0.1951 -0.0008 -0.9808
vn -0.1794 0.1778 -0.9676
vn 0.1794 0.1778 -0.9676
vn 0.1951 -0.0008 -0.9808
vn 0.9673 0.1794 0.1794
vn 0.9977 0.0577 0.0365
vn 0.9808 -0.0002 -0.1950
vn 0.9673 0.1791 -0.1794
vn -0.1935 -0.8566 -0.4784
vn -0.1936 -0.6651 -0.7213
vn 0.1936 -0.6651 -0.7213
vn 0.1935 -0.8566 -0.4784
vn -0.9776 0.0940 0.1884
vn -0.9771 0.1498 0.1508
vn -0.9791 0.1740 0.1052
vn -0.9786 0.1918 0.0748
vn -0.9780 0.2066 0.0302
vn -0.9799 0.1992 -0.0038
vn -0.9767 0.2078 -0.0528
vn -0.9977 0.0577 0.0365
vn -0.9808 -0.0002 -0.1950
vn -0.9808 -0.0000 -0.1951
vn -0.9781 -0.0254 -0.2067
vn -0.9772 -0.0851 -0.1945
vn -0.9773 -0.1437 -0.1559
vn -0.9775 -0.1841 -0.1028
vn -0.9766 -0.2125 -0.0332
vn -0.9762 -0.2087 0.0586
vn -0.9759 -0.1602 0.1481
vn -0.9757 -0.0683 0.2082
vn -0.9769 0.0276 0.2120
vn -0.1935 -0.1199 -0.9737
vn -0.1951 -0.0000 -0.9808
vn 0.1951 -0.0000 -0.9808
vn 0.1935 -0.1199 -0.9737
vn -0.1936 -0.3933 -0.8988
vn 0.1936 -0.3933 -0.8988
vn -0.1935 0.4382 0.8778
vn -0.1937 0.1267 0.9728
vn 0.1937 0.1267 0.9728
vn 0.1935 0.4382 0.8778
vn -0.1938 0.8396 0.5075
vn -0.1936 0.6915 0.6960
vn 0.1936 0.6915 0.6960
vn 0.1938 0.8396 0.5075
vn -0.1949 -0.3058 0.9319
vn 0.1949 -0.3058 0.9319
vn -0.1794 0.9673 -0.1795
vn -0.1794 0.9673 0.1794
vn 0.1794 0.9673 0.1794
vn 0.1794 0.9673 -0.1795
vn -0.1946 -0.7203 0.6658
vn 0.1946 -0.7203 0.6658
vn 0.9776 0.0940 0.1884
vn 0.9769 0.0276 0.2120
vn 0.9757 -0.0683 0.2082
vn 0.9759 -0.1602 0.1481
vn 0.9762 -0.2087 0.0586
vn 0.9766 -0.2125 -0.0332
vn 0.9775 -0.1841 -0.1028
vn 0.9773 -0.1437 -0.1559
vn 0.9772 -0.0851 -0.1945
vn 0.9781 -0.0254 -0.2067
vn 0.9808 -0.0000 -0.1951
vn 0.9767 0.2078 -0.0528
vn 0.9799 0.1992 -0.0038
vn 0.9780 0.2066 0.0302
vn 0.9786 0.1918 0.0748
vn 0.9791 0.1740 0.1052
vn 0.9771 0.1498 0.1508
vn -0.9673 0.1794 0.1794
vn -0.9673 0.1791 -0.1794
vn -0.1942 -0.9444 0.2652
vn 0.1942 -0.9444 0.2652
vn -0.1794 0.1794 0.9673
vn -0.2658 0.1601 0.9507
vn 0.2658 0.1601 0.9507
vn 0.1794 0.1794 0.9673
vn -0.2658 0.9275 -0.2630
vn -0.1938 0.9508 -0.2417
vn 0.1938 0.9508 -0.2417
vn 0.2658 0.9275 -0.2630
vn -0.1939 -0.9693 -0.1512
vn 0.1939 -0.9693 -0.1512
vn -0.1944 0.9808 -0.0185
vn 0.1944 0.9808 -0.0185
vn -0.1727 0.6959 -0.6971
vn -0.5775 0.5768 -0.5778
vn -0.6966 0.6964 -0.1727
vn -0.6966 0.1715 -0.6967
vn -0.6965 0.6965 0.1726
vn -0.5774 0.5774 0.5773
vn -0.1726 0.6965 0.6965
vn -0.6965 0.1726 0.6965
vn -0.9322 0.1246 0.3398
vn -0.8163 0.4882 0.3087
vn -0.5253 0.7192 0.4548
vn -0.9322 0.3604 -0.0332
vn 0.6966 0.6964 -0.1727
vn 0.5775 0.5768 -0.5778
vn 0.1727 0.6959 -0.6971
vn 0.6966 0.1715 -0.6967
vn 0.1726 0.6965 0.6965
vn 0.5774 0.5774 0.5773
vn 0.6965 0.6965 0.1726
vn 0.6965 0.1726 0.6965
vn 0.5253 0.7192 0.4548
vn 0.8163 0.4882 0.3087
vn 0.9322 0.1246 0.3398
vn 0.9322 0.3604 -0.0332
vn -0.6896 0.0935 0.7182
vn -0.6923 0.3223 0.6456
vn -0.6989 0.6121 0.3700
vn -0.6966 0.6684 0.2608
vn -0.6905 0.5098 0.5131
vn -0.6854 -0.2270 0.6918
vn -0.6861 -0.5343 0.4939
vn -0.6871 -0.6995 0.1964
vn -0.6885 -0.7166 -0.1118
vn -0.6920 -0.6303 -0.3520
vn -0.6910 -0.4900 -0.5314
vn -0.6908 -0.2898 -0.6624
vn -0.6944 -0.0879 -0.7142
vn -0.6890 0.7024 -0.1785
vn -0.7029 0.7111 -0.0134
vn -0.6939 0.7125 0.1043
vn -0.7071 -0.0000 -0.7071
vn -0.7072 -0.0006 -0.7070
vn 0.6896 0.0935 0.7182
vn 0.6923 0.3223 0.6456
vn 0.6989 0.6121 0.3700
vn 0.6966 0.6684 0.2608
vn 0.6905 0.5098 0.5131
vn 0.6854 -0.2270 0.6918
vn 0.6861 -0.5343 0.4939
vn 0.6871 -0.6995 0.1964
vn 0.6885 -0.7166 -0.1118
vn 0.6920 -0.6303 -0.3520
vn 0.6910 -0.4900 -0.5314
vn 0.6908 -0.2898 -0.6624
vn 0.6944 -0.0879 -0.7142
vn 0.6890 0.7024 -0.1785
vn 0.7029 0.7111 -0.0134
vn 0.6939 0.7125 0.1043
vn 0.7071 -0.0000 -0.7071
vn 0.7072 -0.0006 -0.7070
vt 0.000000 0.000000
s 1
f 65/1/1 1/1/2 83/1/3 142/1/4
f 74/1/5 38/1/6 117/1/7 148/1/8
f 124/1/9 131/1/10 149/1/11 116/1/12
f 29/1/13 32/1/14 106/1/15 103/1/16
f 8/1/17 10/1/18 4/1/19 2/1/20 64/1/21 61/1/22 58/1/23 52/1/24 73/1/25 70/1/26 67/1/27 34/1/28 31/1/29 28/1/30 25/1/31 22/1/32 19/1/33 16/1/34 13/1/35
f 68/1/36 71/1/37 145/1/38 112/1/39
f 32/1/14 35/1/40 109/1/41 106/1/15
f 7/1/42 14/1/43 79/1/44 77/1/45
f 5/1/46 11/1/47 88/1/48 85/1/49
f 35/1/40 68/1/36 112/1/39 109/1/41
f 14/1/43 17/1/50 91/1/51 79/1/44
f 71/1/37 74/1/5 148/1/8 145/1/38
f 37/1/52 44/1/53 122/1/54 115/1/55
f 17/1/50 20/1/56 94/1/57 91/1/51
f 76/1/58 80/1/59 92/1/60 95/1/61 98/1/62 101/1/63 104/1/64 107/1/65 110/1/66 113/1/67 146/1/68 149/1/11 131/1/10 137/1/69 140/1/70 143/1/71 82/1/72 86/1/73 89/1/74
f 45/1/75 39/1/76 73/1/25 52/1/24
f 20/1/56 23/1/77 97/1/78 94/1/57
f 46/1/79 51/1/80 129/1/81 123/1/82
f 53/1/83 59/1/84 136/1/85 130/1/86
f 23/1/77 26/1/87 100/1/88 97/1/78
f 59/1/84 62/1/89 139/1/90 136/1/85
f 26/1/87 29/1/13 103/1/16 100/1/88
f 11/1/47 7/1/42 77/1/45 88/1/48
f 62/1/89 65/1/1 142/1/4 139/1/90
f 37/1/52 40/1/91 41/1/92 43/1/93
f 38/1/6 42/1/94 41/1/92 40/1/91
f 39/1/76 43/1/93 41/1/92 42/1/94
f 44/1/53 47/1/95 48/1/96 50/1/97
f 45/1/75 49/1/98 48/1/96 47/1/95
f 46/1/79 50/1/97 48/1/96 49/1/98
f 51/1/80 54/1/99 55/1/100 57/1/101
f 52/1/24 56/1/102 55/1/100 54/1/99
f 53/1/83 57/1/101 55/1/100 56/1/102
f 115/1/55 118/1/103 119/1/104 121/1/105
f 116/1/12 120/1/106 119/1/104 118/1/103
f 117/1/7 121/1/105 119/1/104 120/1/106
f 122/1/54 125/1/107 126/1/108 128/1/109
f 123/1/82 127/1/110 126/1/108 125/1/107
f 124/1/9 128/1/109 126/1/108 127/1/110
f 129/1/81 132/1/111 133/1/112 135/1/113
f 130/1/86 134/1/114 133/1/112 132/1/111
f 131/1/10 135/1/113 133/1/112 134/1/114
f 8/1/17 13/1/35 15/1/115 9/1/116
f 9/1/116 15/1/115 14/1/43 7/1/42
f 2/1/20 4/1/19 6/1/117 3/1/118
f 3/1/118 6/1/117 5/1/46 1/1/2
f 4/1/19 10/1/18 12/1/119 6/1/117
f 6/1/117 12/1/119 11/1/47 5/1/46
f 10/1/18 8/1/17 9/1/116 12/1/119
f 12/1/119 9/1/116 7/1/42 11/1/47
f 13/1/35 16/1/34 18/1/120 15/1/115
f 15/1/115 18/1/120 17/1/50 14/1/43
f 16/1/34 19/1/33 21/1/121 18/1/120
f 18/1/120 21/1/121 20/1/56 17/1/50
f 19/1/33 22/1/32 24/1/122 21/1/121
f 21/1/121 24/1/122 23/1/77 20/1/56
f 22/1/32 25/1/31 27/1/123 24/1/122
f 24/1/122 27/1/123 26/1/87 23/1/77
f 25/1/31 28/1/30 30/1/124 27/1/123
f 27/1/123 30/1/124 29/1/13 26/1/87
f 28/1/30 31/1/29 33/1/125 30/1/124
f 30/1/124 33/1/125 32/1/14 29/1/13
f 31/1/29 34/1/28 36/1/126 33/1/125
f 33/1/125 36/1/126 35/1/40 32/1/14
f 34/1/28 67/1/27 69/1/127 36/1/126
f 36/1/126 69/1/127 68/1/36 35/1/40
f 39/1/76 45/1/75 47/1/95 43/1/93
f 43/1/93 47/1/95 44/1/53 37/1/52
f 45/1/75 52/1/24 54/1/99 49/1/98
f 49/1/98 54/1/99 51/1/80 46/1/79
f 52/1/24 58/1/23 60/1/128 56/1/102
f 56/1/102 60/1/128 59/1/84 53/1/83
f 58/1/23 61/1/22 63/1/129 60/1/128
f 60/1/128 63/1/129 62/1/89 59/1/84
f 61/1/22 64/1/21 66/1/130 63/1/129
f 63/1/129 66/1/130 65/1/1 62/1/89
f 1/1/2 65/1/1 66/1/130 3/1/118
f 3/1/118 66/1/130 64/1/21 2/1/20
f 67/1/27 70/1/26 72/1/131 69/1/127
f 69/1/127 72/1/131 71/1/37 68/1/36
f 70/1/26 73/1/25 75/1/132 72/1/131
f 72/1/131 75/1/132 74/1/5 71/1/37
f 38/1/6 74/1/5 75/1/132 42/1/94
f 42/1/94 75/1/132 73/1/25 39/1/76
f 77/1/45 79/1/44 81/1/133 78/1/134
f 78/1/134 81/1/133 80/1/59 76/1/58
f 83/1/3 85/1/49 87/1/135 84/1/136
f 84/1/136 87/1/135 86/1/73 82/1/72
f 85/1/49 88/1/48 90/1/137 87/1/135
f 87/1/135 90/1/137 89/1/74 86/1/73
f 88/1/48 77/1/45 78/1/134 90/1/137
f 90/1/137 78/1/134 76/1/58 89/1/74
f 79/1/44 91/1/51 93/1/138 81/1/133
f 81/1/133 93/1/138 92/1/60 80/1/59
f 91/1/51 94/1/57 96/1/139 93/1/138
f 93/1/138 96/1/139 95/1/61 92/1/60
f 94/1/57 97/1/78 99/1/140 96/1/139
f 96/1/139 99/1/140 98/1/62 95/1/61
f 97/1/78 100/1/88 102/1/141 99/1/140
f 99/1/140 102/1/141 101/1/63 98/1/62
f 100/1/88 103/1/16 105/1/142 102/1/141
f 102/1/141 105/1/142 104/1/64 101/1/63
f 103/1/16 106/1/15 108/1/143 105/1/142
f 105/1/142 108/1/143 107/1/65 104/1/64
f 106/1/15 109/1/41 111/1/144 108/1/143
f 108/1/143 111/1/144 110/1/66 107/1/65
f 109/1/41 112/1/39 114/1/145 111/1/144
f 111/1/144 114/1/145 113/1/67 110/1/66
f 115/1/55 122/1/54 128/1/109 118/1/103
f 118/1/103 128/1/109 124/1/9 116/1/12
f 123/1/82 129/1/81 135/1/113 127/1/110
f 127/1/110 135/1/113 131/1/10 124/1/9
f 130/1/86 136/1/85 138/1/146 134/1/114
f 134/1/114 138/1/146 137/1/69 131/1/10
f 136/1/85 139/1/90 141/1/147 138/1/146
f 138/1/146 141/1/147 140/1/70 137/1/69
f 139/1/90 142/1/4 144/1/148 141/1/147
f 141/1/147 144/1/148 143/1/71 140/1/70
f 82/1/72 143/1/71 144/1/148 84/1/136
f 84/1/136 144/1/148 142/1/4 83/1/3
f 112/1/39 145/1/38 147/1/149 114/1/145
f 114/1/145 147/1/149 146/1/68 113/1/67
f 145/1/38 148/1/8 150/1/150 147/1/149
f 147/1/149 150/1/150 149/1/11 146/1/68
f 116/1/12 149/1/11 150/1/150 120/1/106
f 120/1/106 150/1/150 148/1/8 117/1/7
f 46/1/79 123/1/82 125/1/107 50/1/97
f 50/1/97 125/1/107 122/1/54 44/1/53
f 117/1/7 38/1/6 40/1/91 121/1/105
f 121/1/105 40/1/91 37/1/52 115/1/55
f 53/1/83 130/1/86 132/1/111 57/1/101
f 57/1/101 132/1/111 129/1/81 51/1/80
f 1/1/2 5/1/46 85/1/49 83/1/3
