# Blender 3.6.8
# www.blender.org
mtllib whole rest.mtl
o Cube.001
v -0.138261 0.271111 -0.500006
v -0.163261 0.321111 -0.475006
v -0.138261 0.296111 -0.525006
v -0.155939 0.296111 -0.492683
v -0.152695 0.296111 -0.500006
v -0.155939 0.303433 -0.500006
v -0.138261 0.288789 -0.507328
v -0.138261 -0.040437 -0.500006
v -0.138261 -0.065437 -0.475006
v -0.163261 -0.040437 -0.475006
v -0.138261 -0.058115 -0.492683
v -0.152695 -0.054871 -0.489440
v -0.155939 -0.058115 -0.475006
v -0.155939 -0.040437 -0.492683
v -0.138261 0.271111 0.499994
v -0.138261 0.296111 0.524994
v -0.163261 0.321111 0.474994
v -0.138261 0.288789 0.507317
v -0.152695 0.296111 0.499994
v -0.155939 0.303433 0.499994
v -0.155939 0.296111 0.492672
v -0.138261 -0.065437 0.474994
v -0.138261 -0.040437 0.499994
v -0.163261 -0.040437 0.474994
v -0.138261 -0.058115 0.492672
v -0.152695 -0.054871 0.489428
v -0.155939 -0.040437 0.492672
v -0.155939 -0.058115 0.474994
v 0.138261 0.271111 -0.500006
v 0.138261 0.296111 -0.525006
v 0.163261 0.321111 -0.475006
v 0.138261 0.288789 -0.507328
v 0.152695 0.296111 -0.500006
v 0.155939 0.303433 -0.500006
v 0.155939 0.296111 -0.492683
v 0.138261 -0.065437 -0.475006
v 0.138261 -0.040437 -0.500006
v 0.163261 -0.040437 -0.475006
v 0.138261 -0.058115 -0.492683
v 0.152695 -0.054871 -0.489440
v 0.155939 -0.040437 -0.492683
v 0.155939 -0.058115 -0.475006
v 0.138261 0.296111 0.524994
v 0.138261 0.271111 0.499994
v 0.163261 0.321111 0.474994
v 0.138261 0.288789 0.507317
v 0.152695 0.296111 0.499994
v 0.155939 0.296111 0.492672
v 0.155939 0.303433 0.499994
v 0.138261 -0.065437 0.474994
v 0.163261 -0.040437 0.474994
v 0.138261 -0.040437 0.499994
v 0.155939 -0.058115 0.474994
v 0.152695 -0.054871 0.489428
v 0.155939 -0.040437 0.492672
v 0.138261 -0.058115 0.492672
v -0.163261 0.393627 0.499994
v -0.138261 0.418627 0.499994
v -0.155939 0.411304 0.499994
v -0.138261 0.418627 -0.500006
v -0.163261 0.393627 -0.500006
v -0.155939 0.411304 -0.500006
v 0.138261 0.418627 0.499994
v 0.163261 0.393627 0.499994
v 0.155939 0.411304 0.499994
v 0.163261 0.393627 -0.500006
v 0.138261 0.418627 -0.500006
v 0.155939 0.411304 -0.500006
v 0.138261 0.296111 0.770115
v 0.163261 0.321111 0.770115
v 0.138261 0.321111 0.795115
v 0.155939 0.303433 0.770115
v 0.152695 0.306677 0.784549
v 0.155939 0.321111 0.787793
v 0.138261 0.303433 0.787793
v -0.138261 0.296111 0.770115
v -0.138261 0.321111 0.795115
v -0.163261 0.321111 0.770115
v -0.138261 0.303433 0.787793
v -0.152695 0.306677 0.784549
v -0.155939 0.321111 0.787793
v -0.155939 0.303433 0.770115
v -0.138261 0.296111 -0.770125
v -0.163261 0.321111 -0.770125
v -0.138261 0.321111 -0.795125
v -0.155939 0.303433 -0.770125
v -0.152695 0.306677 -0.784559
v -0.155939 0.321111 -0.787803
v -0.138261 0.303433 -0.787803
v 0.138261 0.296111 -0.770125
v 0.138261 0.321111 -0.795125
v 0.163261 0.321111 -0.770125
v 0.138261 0.303433 -0.787803
v 0.152695 0.306677 -0.784559
v 0.155939 0.321111 -0.787803
v 0.155939 0.303433 -0.770125
v 0.138261 0.418627 0.770115
v 0.138261 0.393627 0.795115
v 0.163261 0.393627 0.770115
v 0.138261 0.411304 0.787793
v 0.152695 0.408060 0.784549
v 0.155939 0.393627 0.787793
v 0.155939 0.411304 0.770115
v -0.138261 0.418627 0.770115
v -0.163261 0.393627 0.770115
v -0.138261 0.393627 0.795115
v -0.155939 0.411304 0.770115
v -0.152695 0.408060 0.784549
v -0.155939 0.393627 0.787793
v -0.138261 0.411304 0.787793
v -0.138261 0.418627 -0.770125
v -0.138261 0.393627 -0.795125
v -0.163261 0.393627 -0.770125
v -0.138261 0.411304 -0.787803
v -0.152695 0.408060 -0.784559
v -0.155939 0.393627 -0.787803
v -0.155939 0.411304 -0.770125
v 0.138261 0.418627 -0.770125
v 0.163261 0.393627 -0.770125
v 0.138261 0.393627 -0.795125
v 0.155939 0.411304 -0.770125
v 0.152695 0.408060 -0.784559
v 0.155939 0.393627 -0.787803
v 0.138261 0.411304 -0.787803
vn 0.2514 -0.1535 -0.9556
vn 0.1794 -0.1794 -0.9673
vn -0.1794 -0.1794 -0.9673
vn -0.2514 -0.1535 -0.9556
vn -0.2514 -0.9556 0.1535
vn 0.2514 -0.9556 0.1535
vn 0.1794 -0.9673 0.1794
vn -0.1794 -0.9673 0.1794
vn 0.9974 -0.0507 0.0507
vn 0.9808 0.1951 -0.0000
vn 0.9673 0.1794 0.1794
vn 0.9673 -0.1794 0.1794
vn -0.9974 -0.0507 -0.0507
vn -0.9808 0.1951 -0.0000
vn -0.9673 0.1794 -0.1794
vn -0.9673 -0.1794 -0.1794
vn -0.1794 -0.1794 0.9673
vn 0.1794 -0.1794 0.9673
vn 0.1794 0.1794 0.9673
vn -0.1794 0.1794 0.9673
vn -0.2514 -0.1535 0.9556
vn 0.2514 -0.1535 0.9556
vn 0.1951 0.9808 -0.0000
vn -0.1951 0.9808 -0.0000
vn -0.1794 0.9673 0.1794
vn 0.1794 0.9673 0.1794
vn -0.9673 -0.1794 0.1794
vn -0.9974 -0.0507 0.0507
vn 0.9974 -0.0507 -0.0507
vn 0.9673 -0.1794 -0.1794
vn 0.9673 0.1794 -0.1794
vn -0.9673 0.1794 0.1794
vn -0.1794 0.1794 -0.9673
vn 0.1794 0.1794 -0.9673
vn 0.1794 0.9673 -0.1794
vn -0.1794 0.9673 -0.1794
vn 0.2514 -0.9556 -0.1535
vn -0.2514 -0.9556 -0.1535
vn -0.1794 -0.9673 -0.1794
vn 0.1794 -0.9673 -0.1794
vn -0.8862 -0.1446 -0.4402
vn -0.7686 -0.4524 -0.4524
vn -0.4061 -0.6462 -0.6462
vn -0.8862 -0.4402 -0.1446
vn -0.1726 -0.6965 -0.6965
vn -0.5773 -0.5774 -0.5774
vn -0.6965 -0.1726 -0.6965
vn -0.6965 -0.6965 -0.1726
vn -0.4061 -0.6462 0.6462
vn -0.7686 -0.4524 0.4524
vn -0.8862 -0.1446 0.4402
vn -0.8862 -0.4402 0.1446
vn -0.1726 -0.6965 0.6965
vn -0.5773 -0.5774 0.5774
vn -0.6965 -0.6965 0.1726
vn -0.6965 -0.1726 0.6965
vn 0.4061 -0.6462 -0.6462
vn 0.7686 -0.4524 -0.4524
vn 0.8862 -0.1446 -0.4402
vn 0.8862 -0.4402 -0.1446
vn 0.1726 -0.6965 -0.6965
vn 0.5773 -0.5774 -0.5774
vn 0.6965 -0.6965 -0.1726
vn 0.6965 -0.1726 -0.6965
vn 0.4061 -0.6462 0.6462
vn 0.7686 -0.4524 0.4524
vn 0.8862 -0.4402 0.1446
vn 0.8862 -0.1446 0.4402
vn 0.6965 -0.6965 0.1726
vn 0.5773 -0.5774 0.5774
vn 0.1726 -0.6965 0.6965
vn 0.6965 -0.1726 0.6965
vn 0.1726 0.6965 0.6965
vn 0.5773 0.5774 0.5774
vn 0.6965 0.6965 0.1726
vn 0.6965 0.1726 0.6965
vn -0.6965 0.6965 0.1726
vn -0.5773 0.5774 0.5774
vn -0.1726 0.6965 0.6965
vn -0.6965 0.1726 0.6965
vn -0.1726 0.6965 -0.6965
vn -0.5773 0.5774 -0.5774
vn -0.6965 0.6965 -0.1726
vn -0.6965 0.1726 -0.6965
vn 0.6965 0.6965 -0.1726
vn 0.5773 0.5774 -0.5773
vn 0.1726 0.6965 -0.6965
vn 0.6965 0.1726 -0.6965
vn -0.7071 0.7071 -0.0000
vn 0.7071 0.7071 -0.0000
vt 0.392287 0.769141
vt 0.607713 0.769141
vt 0.607713 0.980859
vt 0.392287 0.980859
vt 0.375000 0.269141
vt 0.375000 0.480859
vt 0.375000 0.480859
vt 0.375000 0.269141
vt 0.375000 0.500000
vt 0.375000 0.500000
vt 0.375000 0.000000
vt 0.375000 0.000000
vt 0.375000 0.269141
vt 0.375000 0.480859
vt 0.375000 0.269141
vt 0.392287 0.269141
vt 0.607713 0.269141
vt 0.607713 0.480859
vt 0.392287 0.480859
vt 0.355859 0.500000
vt 0.144141 0.500000
vt 0.144141 0.500000
vt 0.357713 0.006250
vt 0.607713 0.006250
vt 0.607713 0.243750
vt 0.357713 0.243750
vt 0.375000 0.750000
vt 0.375000 0.750000
vt 0.375000 0.250000
vt 0.375000 0.250000
vt 0.375000 0.250000
vt 0.375000 0.769141
vt 0.375000 0.980859
vt 0.375000 0.980859
vt 0.375000 0.769141
vt 0.144141 0.750000
vt 0.355859 0.750000
vt 0.355859 0.750000
vt 0.144141 0.750000
vt 0.375000 0.769141
vt 0.375000 0.980859
vt 0.375000 0.980859
vt 0.144141 0.500000
vt 0.355859 0.500000
vt 0.355859 0.750000
vt 0.144141 0.750000
vt 0.644141 0.506250
vt 0.855859 0.506250
vt 0.855859 0.743750
vt 0.644141 0.743750
vt 0.357713 0.506250
vt 0.607713 0.506250
vt 0.607713 0.743750
vt 0.357713 0.743750
vt 0.375000 0.506250
vt 0.375000 0.743750
vt 0.375000 1.000000
vt 0.375000 0.991910
vt 0.625000 0.980859
vt 0.625000 0.991910
vt 0.607713 1.000000
vt 0.875000 0.743750
vt 0.875000 0.747358
vt 0.855859 0.750000
vt 0.607713 0.000000
vt 0.617694 0.000000
vt 0.625000 0.006250
vt 0.375000 0.252697
vt 0.855859 0.500000
vt 0.866910 0.500000
vt 0.875000 0.506250
vt 0.607713 0.250000
vt 0.617694 0.250000
vt 0.625000 0.269141
vt 0.625000 0.243750
vt 0.625000 0.247358
vt 0.375000 0.752697
vt 0.644141 0.750000
vt 0.625261 0.749119
vt 0.625000 0.743750
vt 0.607713 0.750000
vt 0.625000 0.769141
vt 0.375000 0.480859
vt 0.375000 0.497303
vt 0.375000 0.480859
vt 0.625000 0.506250
vt 0.622565 0.498184
vt 0.644141 0.500000
vt 0.607713 0.500000
vt 0.625000 0.480859
vt 0.375000 0.497303
vt 0.375000 0.269141
vt 0.375000 0.252697
vt 0.375000 0.991910
vt 0.375000 0.769141
vt 0.375000 0.752697
vt 0.372303 0.500000
vt 0.125000 0.500000
vt 0.375000 0.258090
vt 0.133090 0.750000
vt 0.125000 0.750000
vt 0.375000 0.006250
vt 0.375000 0.243750
s 1
f 29/1/1 37/2/2 8/3/3 1/4/4
f 16/5/5 43/6/6 69/7/7 76/8/8
f 45/9/9 64/10/10 99/10/11 70/10/12
f 2/11/13 61/11/14 113/11/15 84/12/16
f 77/13/17 71/14/18 98/7/19 106/15/20
f 15/16/21 23/17/17 52/18/18 44/19/22
f 63/20/23 58/21/24 104/22/25 97/20/26
f 2/23/13 10/24/16 24/25/27 17/26/28
f 66/27/10 31/27/29 92/28/30 119/27/31
f 57/29/14 17/30/28 78/29/27 105/31/32
f 91/32/2 85/33/3 112/34/33 120/35/34
f 60/36/24 67/37/23 118/38/35 111/39/36
f 30/40/37 3/41/38 83/42/39 90/32/40
f 58/43/24 63/44/23 67/45/23 60/46/24
f 50/47/7 22/48/8 9/49/39 36/50/40
f 45/51/9 51/52/12 38/53/30 31/54/29
f 45/55/9 31/56/29 66/27/10 64/10/10
f 1/4/4 4/57/41 5/57/42 7/41/43
f 2/11/13 6/11/44 5/11/42 4/11/41
f 3/41/38 7/41/43 5/58/42 6/57/44
f 8/3/3 11/59/45 12/60/46 14/61/47
f 9/49/39 13/62/48 12/63/46 11/64/45
f 10/24/16 14/65/47 12/66/46 13/67/48
f 15/16/21 18/15/49 19/68/50 21/29/51
f 16/5/5 20/29/52 19/68/50 18/15/49
f 17/26/28 21/29/51 19/68/50 20/29/52
f 22/48/8 25/69/53 26/70/54 28/71/55
f 23/17/17 27/72/56 26/73/54 25/74/53
f 24/25/27 28/75/55 26/76/54 27/72/56
f 29/1/1 32/35/57 33/77/58 35/27/59
f 30/40/37 34/27/60 33/77/58 32/35/57
f 31/54/29 35/27/59 33/77/58 34/27/60
f 36/50/40 39/78/61 40/79/62 42/80/63
f 37/2/2 41/81/64 40/79/62 39/82/61
f 38/53/30 42/80/63 40/79/62 41/81/64
f 43/6/6 46/83/65 47/84/66 49/10/67
f 44/19/22 48/10/68 47/84/66 46/85/65
f 45/9/9 49/10/67 47/84/66 48/10/68
f 50/47/7 53/86/69 54/87/70 56/88/71
f 51/52/12 55/89/72 54/87/70 53/86/69
f 52/18/18 56/90/71 54/87/70 55/89/72
f 69/7/7 72/10/69 73/91/70 75/85/71
f 70/10/12 74/10/72 73/91/70 72/10/69
f 71/14/18 75/83/71 73/91/70 74/10/72
f 76/8/8 79/92/53 80/93/54 82/29/55
f 77/13/17 81/29/56 80/93/54 79/8/53
f 78/29/27 82/29/55 80/93/54 81/29/56
f 83/42/39 86/57/48 87/57/46 89/41/45
f 84/12/16 88/11/47 87/11/46 86/11/48
f 85/33/3 89/41/45 87/94/46 88/57/47
f 90/32/40 93/95/61 94/96/62 96/27/63
f 91/32/2 95/27/64 94/96/62 93/35/61
f 92/28/30 96/27/63 94/96/62 95/27/64
f 97/20/26 100/44/73 101/97/74 103/10/75
f 98/7/19 102/10/76 101/97/74 100/85/73
f 99/10/11 103/10/75 101/97/74 102/10/76
f 104/22/25 107/98/77 108/98/78 110/21/79
f 105/31/32 109/29/80 108/29/78 107/29/77
f 106/15/20 110/92/79 108/99/78 109/29/80
f 111/39/36 114/46/81 115/100/82 117/101/83
f 112/34/33 116/57/84 115/57/82 114/41/81
f 113/11/15 117/11/83 115/11/82 116/11/84
f 118/38/35 121/27/85 122/96/86 124/37/87
f 119/27/31 123/27/88 122/96/86 121/27/85
f 120/35/34 124/95/87 122/96/86 123/27/88
f 1/4/4 8/3/3 14/61/47 4/57/41
f 4/11/41 14/65/47 10/24/16 2/23/13
f 9/49/39 22/48/8 28/71/55 13/62/48
f 13/67/48 28/75/55 24/25/27 10/24/16
f 23/17/17 15/16/21 21/29/51 27/72/56
f 27/72/56 21/29/51 17/26/28 24/25/27
f 43/6/6 16/5/5 18/15/49 46/85/65
f 46/85/65 18/15/49 15/16/21 44/19/22
f 22/48/8 50/47/7 56/88/71 25/69/53
f 25/74/53 56/90/71 52/18/18 23/17/17
f 51/52/12 45/51/9 48/10/68 55/89/72
f 55/89/72 48/10/68 44/19/22 52/18/18
f 50/47/7 36/50/40 42/80/63 53/86/69
f 53/86/69 42/80/63 38/53/30 51/52/12
f 37/2/2 29/1/1 35/27/59 41/81/64
f 41/81/64 35/27/59 31/54/29 38/53/30
f 3/41/38 30/40/37 32/35/57 7/41/43
f 7/41/43 32/35/57 29/1/1 1/4/4
f 36/50/40 9/49/39 11/64/45 39/78/61
f 39/82/61 11/59/45 8/3/3 37/2/2
f 58/43/24 60/46/24 62/101/89 59/98/89
f 59/29/89 62/11/89 61/11/14 57/29/14
f 67/45/23 63/44/23 65/10/90 68/27/90
f 68/27/90 65/10/90 64/10/10 66/27/10
f 71/14/18 77/13/17 79/92/53 75/85/71
f 75/85/71 79/92/53 76/8/8 69/7/7
f 85/33/3 91/32/2 93/35/61 89/41/45
f 89/41/45 93/35/61 90/32/40 83/42/39
f 97/20/26 104/22/25 110/21/79 100/44/73
f 100/85/73 110/92/79 106/15/20 98/7/19
f 111/39/36 118/38/35 124/37/87 114/46/81
f 114/41/81 124/95/87 120/35/34 112/34/33
f 70/10/12 99/10/11 102/10/76 74/10/72
f 74/10/72 102/10/76 98/7/19 71/14/18
f 105/31/32 78/29/27 81/29/56 109/29/80
f 109/29/80 81/29/56 77/13/17 106/15/20
f 112/34/33 85/33/3 88/57/47 116/57/84
f 116/11/84 88/11/47 84/12/16 113/11/15
f 91/32/2 120/35/34 123/27/88 95/27/64
f 95/27/64 123/27/88 119/27/31 92/28/30
f 45/9/9 70/10/12 72/10/69 49/10/67
f 49/10/67 72/10/69 69/7/7 43/6/6
f 78/29/27 17/30/28 20/29/52 82/29/55
f 82/29/55 20/29/52 16/5/5 76/8/8
f 66/27/10 119/27/31 121/27/85 68/27/90
f 68/27/90 121/27/85 118/38/35 67/37/23
f 113/11/15 61/11/14 62/11/89 117/11/83
f 117/101/83 62/101/89 60/36/24 111/39/36
f 57/29/14 105/31/32 107/29/77 59/29/89
f 59/98/89 107/98/77 104/22/25 58/21/24
f 99/10/11 64/10/10 65/10/90 103/10/75
f 103/10/75 65/10/90 63/20/23 97/20/26
f 83/42/39 3/41/38 6/57/44 86/57/48
f 86/11/48 6/11/44 2/11/13 84/12/16
f 92/28/30 31/27/29 34/27/60 96/27/63
f 96/27/63 34/27/60 30/40/37 90/32/40
f 2/102/13 17/103/28 57/29/14 61/11/14
