# Blender 3.6.8
# www.blender.org
mtllib coin.mtl
o Cylinder
v 0.482285 0.131914 -0.025904
v 0.482285 0.131914 0.025904
v 0.498753 0.035290 -0.025904
v 0.498753 0.035290 0.025904
v 0.496054 -0.062690 -0.025904
v 0.496054 -0.062690 0.025904
v 0.474293 -0.158261 -0.025904
v 0.474293 -0.158261 0.025904
v 0.434304 -0.247750 -0.025904
v 0.434304 -0.247750 0.025904
v 0.377625 -0.327718 -0.025904
v 0.377625 -0.327718 0.025904
v 0.306435 -0.395092 -0.025904
v 0.306435 -0.395092 0.025904
v 0.223468 -0.447283 -0.025904
v 0.223468 -0.447283 0.025904
v 0.131914 -0.482285 -0.025904
v 0.131914 -0.482285 0.025904
v 0.035290 -0.498753 -0.025904
v 0.035290 -0.498753 0.025904
v -0.062690 -0.496054 -0.025904
v -0.062690 -0.496054 0.025904
v -0.158261 -0.474293 -0.025904
v -0.158261 -0.474293 0.025904
v -0.247750 -0.434304 -0.025904
v -0.247750 -0.434304 0.025904
v -0.327718 -0.377625 -0.025904
v -0.327718 -0.377625 0.025904
v -0.395092 -0.306435 -0.025904
v -0.395092 -0.306435 0.025904
v -0.447283 -0.223468 -0.025904
v -0.447283 -0.223468 0.025904
v -0.482285 -0.131914 -0.025904
v -0.482285 -0.131914 0.025904
v -0.498753 -0.035290 -0.025904
v -0.498753 -0.035290 0.025904
v -0.496054 0.062690 -0.025904
v -0.496054 0.062690 0.025904
v -0.474293 0.158261 -0.025904
v -0.474293 0.158261 0.025904
v -0.434304 0.247750 -0.025904
v -0.434304 0.247750 0.025904
v -0.377625 0.327718 -0.025904
v -0.377625 0.327718 0.025904
v -0.306435 0.395092 -0.025904
v -0.306435 0.395092 0.025904
v -0.223468 0.447283 -0.025904
v -0.223468 0.447283 0.025904
v -0.131914 0.482285 -0.025904
v -0.131914 0.482285 0.025904
v -0.035290 0.498753 -0.025904
v -0.035290 0.498753 0.025904
v 0.062690 0.496054 -0.025904
v 0.062690 0.496054 0.025904
v 0.158261 0.474293 -0.025904
v 0.158261 0.474293 0.025904
v 0.247750 0.434304 -0.025904
v 0.247750 0.434304 0.025904
v 0.327718 0.377625 -0.025904
v 0.327718 0.377625 0.025904
v 0.395092 0.306435 -0.025904
v 0.395092 0.306435 0.025904
v 0.447283 0.223468 -0.025904
v 0.447283 0.223468 0.025904
vn 0.9858 0.1680 -0.0000
vn 0.9996 -0.0275 -0.0000
vn 0.9750 -0.2220 -0.0000
vn 0.9130 -0.4080 -0.0000
vn 0.8159 -0.5783 -0.0000
vn 0.6874 -0.7263 -0.0000
vn 0.5325 -0.8465 -0.0000
vn 0.3571 -0.9341 -0.0000
vn 0.1680 -0.9858 -0.0000
vn -0.0275 -0.9996 -0.0000
vn -0.2220 -0.9750 -0.0000
vn -0.4080 -0.9130 -0.0000
vn -0.5783 -0.8159 -0.0000
vn -0.7263 -0.6874 -0.0000
vn -0.8465 -0.5325 -0.0000
vn -0.9341 -0.3571 -0.0000
vn -0.9858 -0.1680 -0.0000
vn -0.9996 0.0275 -0.0000
vn -0.9750 0.2220 -0.0000
vn -0.9130 0.4080 -0.0000
vn -0.8159 0.5783 -0.0000
vn -0.6874 0.7263 -0.0000
vn -0.5325 0.8465 -0.0000
vn -0.3571 0.9341 -0.0000
vn -0.1680 0.9858 -0.0000
vn 0.0275 0.9996 -0.0000
vn 0.2220 0.9750 -0.0000
vn 0.4080 0.9130 -0.0000
vn 0.5783 0.8159 -0.0000
vn 0.7263 0.6874 -0.0000
vn -0.0000 -0.0000 1.0000
vn 0.8465 0.5325 -0.0000
vn 0.9341 0.3571 -0.0000
vn -0.0000 -0.0000 -1.0000
vt 0.049029 0.000022
vt 0.049029 0.999978
vt 0.000022 0.999978
vt 0.000022 0.000022
vt 0.028453 0.263934
vt 0.251575 0.489963
vt 0.250429 0.489489
vt 0.009648 0.354898
vt 0.249249 0.489471
vt 0.000071 0.451370
vt 0.248079 0.489913
vt 0.000071 0.549647
vt 0.246965 0.490801
vt 0.009628 0.645964
vt 0.245947 0.492094
vt 0.028360 0.736646
vt 0.245062 0.493748
vt 0.055544 0.818270
vt 0.244346 0.495710
vt 0.090154 0.887748
vt 0.243927 0.497638
vt 0.130867 0.942413
vt 0.243708 0.499702
vt 0.176164 0.980206
vt 0.243700 0.501821
vt 0.224316 0.999639
vt 0.243903 0.503906
vt 0.273476 0.999929
vt 0.244311 0.505884
vt 0.321756 0.981032
vt 0.244910 0.507682
vt 0.367291 0.943649
vt 0.245680 0.509227
vt 0.408320 0.889213
vt 0.246593 0.510459
vt 0.443259 0.819820
vt 0.247616 0.511337
vt 0.470766 0.738147
vt 0.248711 0.511819
vt 0.489793 0.647314
vt 0.249841 0.511892
vt 0.499611 0.550804
vt 0.250962 0.511547
vt 0.499843 0.452290
vt 0.252036 0.510793
vt 0.490475 0.355542
vt 0.253026 0.509662
vt 0.471857 0.264266
vt 0.253897 0.508191
vt 0.444690 0.181954
vt 0.254620 0.506433
vt 0.410004 0.111770
vt 0.255154 0.504454
vt 0.368957 0.056992
vt 0.255464 0.502303
vt 0.323340 0.019268
vt 0.255537 0.500070
vt 0.274912 0.000071
vt 0.255375 0.497851
vt 0.225544 0.000147
vt 0.254985 0.495738
vt 0.177143 0.019490
vt 0.254382 0.493820
vt 0.131577 0.057340
vt 0.493982 0.548053
vt 0.484607 0.642313
vt 0.466218 0.731104
vt 0.439521 0.811014
vt 0.405542 0.878971
vt 0.365587 0.932365
vt 0.321192 0.969144
vt 0.274062 0.987893
vt 0.226009 0.987893
vt 0.178879 0.969144
vt 0.134483 0.932365
vt 0.094529 0.878971
vt 0.060550 0.811014
vt 0.033853 0.731104
vt 0.015464 0.642313
vt 0.006089 0.548053
vt 0.006089 0.451947
vt 0.015464 0.357687
vt 0.033853 0.268896
vt 0.060550 0.188986
vt 0.094529 0.121029
vt 0.134483 0.067635
vt 0.178879 0.030857
vt 0.226009 0.012107
vt 0.274062 0.012107
vt 0.321192 0.030857
vt 0.365587 0.067635
vt 0.405542 0.121029
vt 0.439521 0.188986
vt 0.466218 0.268896
vt 0.484607 0.357687
vt 0.493982 0.451947
vt 0.253591 0.492175
vt 0.090599 0.112218
vt 0.252643 0.490871
vt 0.055782 0.181985
vt 0.509512 0.538998
vt 0.509512 0.440520
vt 0.518776 0.343935
vt 0.540174 0.251341
vt 0.570626 0.171072
vt 0.609311 0.101438
vt 0.658799 0.046727
vt 0.692344 0.026783
vt 0.726835 0.014023
vt 0.774321 0.014023
vt 0.808813 0.026783
vt 0.842358 0.046727
vt 0.891846 0.101438
vt 0.930531 0.171072
vt 0.960983 0.252953
vt 0.982381 0.343935
vt 0.991645 0.440520
vt 0.991645 0.538997
vt 0.982381 0.635583
vt 0.964209 0.726564
vt 0.937827 0.808445
vt 0.904250 0.878079
vt 0.864767 0.932790
vt 0.820895 0.970476
vt 0.774322 0.989688
vt 0.726836 0.989688
vt 0.680262 0.970476
vt 0.636391 0.932791
vt 0.596907 0.878079
vt 0.563330 0.808445
vt 0.536948 0.726564
vt 0.518776 0.635583
s 0
usemtl Coin
f 4/65/31 2/66/31 64/67/31 62/68/31 60/69/31 58/70/31 56/71/31 54/72/31 52/73/31 50/74/31 48/75/31 46/76/31 44/77/31 42/78/31 40/79/31 38/80/31 36/81/31 34/82/31 32/83/31 30/84/31 28/85/31 26/86/31 24/87/31 22/88/31 20/89/31 18/90/31 16/91/31 14/92/31 12/93/31 10/94/31 8/95/31 6/96/31
f 1/101/34 3/102/34 5/103/34 7/104/34 9/105/34 11/106/34 13/107/34 15/108/34 17/109/34 19/110/34 21/111/34 23/112/34 25/113/34 27/114/34 29/115/34 31/116/34 33/117/34 35/118/34 37/119/34 39/120/34 41/121/34 43/122/34 45/123/34 47/124/34 49/125/34 51/126/34 53/127/34 55/128/34 57/129/34 59/130/34 61/131/34 63/132/34
usemtl Edge
f 1/1/1 2/2/1 4/3/1 3/4/1
f 3/5/2 4/6/2 6/7/2 5/8/2
f 5/8/3 6/7/3 8/9/3 7/10/3
f 7/10/4 8/9/4 10/11/4 9/12/4
f 9/12/5 10/11/5 12/13/5 11/14/5
f 11/14/6 12/13/6 14/15/6 13/16/6
f 13/16/7 14/15/7 16/17/7 15/18/7
f 15/18/8 16/17/8 18/19/8 17/20/8
f 17/20/9 18/19/9 20/21/9 19/22/9
f 19/22/10 20/21/10 22/23/10 21/24/10
f 21/24/11 22/23/11 24/25/11 23/26/11
f 23/26/12 24/25/12 26/27/12 25/28/12
f 25/28/13 26/27/13 28/29/13 27/30/13
f 27/30/14 28/29/14 30/31/14 29/32/14
f 29/32/15 30/31/15 32/33/15 31/34/15
f 31/34/16 32/33/16 34/35/16 33/36/16
f 33/36/17 34/35/17 36/37/17 35/38/17
f 35/38/18 36/37/18 38/39/18 37/40/18
f 37/40/19 38/39/19 40/41/19 39/42/19
f 39/42/20 40/41/20 42/43/20 41/44/20
f 41/44/21 42/43/21 44/45/21 43/46/21
f 43/46/22 44/45/22 46/47/22 45/48/22
f 45/48/23 46/47/23 48/49/23 47/50/23
f 47/50/24 48/49/24 50/51/24 49/52/24
f 49/52/25 50/51/25 52/53/25 51/54/25
f 51/54/26 52/53/26 54/55/26 53/56/26
f 53/56/27 54/55/27 56/57/27 55/58/27
f 55/58/28 56/57/28 58/59/28 57/60/28
f 57/60/29 58/59/29 60/61/29 59/62/29
f 59/62/30 60/61/30 62/63/30 61/64/30
f 61/64/32 62/63/32 64/97/32 63/98/32
f 63/98/33 64/97/33 2/99/33 1/100/33
