# Blender 3.6.8
# www.blender.org
mtllib head.mtl
o Block
v 0.500000 0.500000 -0.500000
v 0.500000 -0.500000 -0.500000
v 0.500000 0.500000 0.500000
v 0.500000 -0.500000 0.500000
v -0.500000 0.500000 -0.500000
v -0.500000 -0.500000 -0.500000
v -0.500000 0.500000 0.500000
v -0.500000 -0.500000 0.500000
vn -0.0000 1.0000 -0.0000
vn -0.0000 -0.0000 1.0000
vn -1.0000 -0.0000 -0.0000
vn -0.0000 -1.0000 -0.0000
vn 1.0000 -0.0000 -0.0000
vn -0.0000 -0.0000 -1.0000
vt 0.505154 0.999603
vt 0.253403 0.998692
vt 0.252918 0.501426
vt 0.504685 0.499929
vt 0.504685 -0.000196
vt 0.252305 0.001019
vt 0.757056 0.000240
vt 0.757118 0.499888
vt 0.757369 0.999347
vt 0.000513 0.498701
vt 0.000200 0.000636
vt 0.999935 0.000124
vt 0.999966 0.499891
s 0
usemtl Material
f 1/1/1 5/2/1 7/3/1 3/4/1
f 4/5/2 3/4/2 7/3/2 8/6/2
f 8/7/3 7/8/3 5/4/3 6/5/3
f 6/9/4 2/1/4 4/4/4 8/8/4
f 2/6/5 1/3/5 3/10/5 4/11/5
f 6/12/6 5/13/6 1/8/6 2/7/6
